<?xml version="1.0" encoding="UTF-8"?>
<svg id="Camada_2" data-name="Camada 2" xmlns="http://www.w3.org/2000/svg" viewBox="0 0 1080 1080">
  <defs>
    <style>
      .cls-1 {
        fill: #fff;
      }

      .cls-2 {
        fill: #d2a047;
      }
    </style>
  </defs>
  <g>
    <path class="cls-1" d="M409.22,418.15c.37,0,.55.49.55.99,0,.43-.18.86-.55.86-5.42,0-7.21,4.56-7.21,17.19v41.34c0,22.98-10.66,38.2-26.86,38.2-1.05,0-1.54-.68-1.54-1.29s.43-1.17,1.29-1.17c10.47,0,16.33-12.82,16.33-35.74v-41.34c0-12.63-1.85-17.19-7.21-17.19-.43,0-.62-.43-.62-.86,0-.49.25-.99.62-.99h25.2Z"/>
    <path class="cls-1" d="M494.37,460.36c0,24.58-18.24,43.32-42.02,43.32s-41.96-18.85-41.96-43.32,18.36-43.38,41.96-43.38,42.02,18.79,42.02,43.38ZM421.79,454.93c0,25.51,15.96,45.78,34.87,45.78,16.08,0,26.31-14.36,26.31-34.94,0-25.82-15.83-45.78-34.81-45.78-16.08,0-26.37,14.42-26.37,34.94Z"/>
    <path class="cls-1" d="M543.42,502.5c-.37,0-.62-.43-.62-.92,0-.37.18-.8.62-.86,2.9-.37,4.31-1.97,4.31-5.11,0-2.22-.74-5.18-2.09-9.12l-8.2-21.32h-25.57l-8.19,21.26c-1.11,3.33-1.73,5.98-1.73,8.01,0,3.88,2.09,5.67,6.35,6.29.37.06.55.49.55.86,0,.49-.19.92-.55.92h-18.24c-.37,0-.62-.49-.62-.92s.18-.86.62-.86c3.94,0,6.72-3.63,11.09-14.48l26.68-69.25h2.65l26.68,69.25c4.31,10.84,7.15,14.48,11.09,14.48.37,0,.55.43.55.86s-.19.92-.55.92h-24.83ZM524.69,431.95l-11.89,30.81h23.72l-11.83-30.81ZM514.77,411.99c.43-7.52,3.33-9.74,7.08-9.8,5.48,0,12.75,4.56,17.07,4.56,1.66,0,2.9-.68,3.39-2.71.12-.49.55-.74.99-.74s.8.25.8.74c-.37,6.53-2.96,8.5-6.35,8.5-5.18,0-12.32-4.5-16.88-4.5-2.16,0-3.7,1.05-4.25,3.94-.06.49-.49.74-.99.74-.43,0-.86-.25-.86-.74Z"/>
    <path class="cls-1" d="M650.33,460.36c0,24.58-18.24,43.32-42.02,43.32s-41.96-18.85-41.96-43.32,18.36-43.38,41.96-43.38,42.02,18.79,42.02,43.38ZM577.74,454.93c0,25.51,15.96,45.78,34.87,45.78,16.08,0,26.31-14.36,26.31-34.94,0-25.82-15.83-45.78-34.81-45.78-16.08,0-26.37,14.42-26.37,34.94Z"/>
  </g>
  <path class="cls-2" d="M152.42,510.01c0-23.42,6.42-45.39,18.36-63.71v-1.47c0-27.69,3.92-37.68,15.8-37.68.81,0,1.22-.95,1.22-1.89,0-1.08-.41-2.16-1.22-2.16h-55.24c-.81,0-1.35,1.08-1.35,2.16,0,.95.41,1.89,1.35,1.89,11.75,0,15.8,9.99,15.8,37.68v90.63c0,50.24-12.83,78.34-35.79,78.34-1.89,0-2.84,1.22-2.84,2.57s1.08,2.84,3.38,2.84c27.12,0,47.14-19.46,55.1-51.09-9.5-17.24-14.57-37.14-14.57-58.09Z"/>
  <path class="cls-2" d="M339,425.84l-8.91,42.08c-.31,1.38-1.23,2-2.15,2-1.23,0-2.46-.92-2.46-2.61,0-34.25-29.8-57.59-68.35-57.59-43.77,0-73.26,33.94-73.26,84.01,0,58.82,40.85,104.59,94.15,104.59,28.41,0,51.76-13.05,60.97-33.64.46-1.08,1.54-1.69,2.46-1.69,1.08,0,2.15.77,2.15,2,0,.15,0,.46-.15.77-9.22,30.72-41.16,52.53-81.25,52.53-58.67,0-103.82-47-103.82-108.28s45.15-107.82,109.51-107.82c28.72,0,56.52,9.22,71.11,23.65Z"/>
  <g>
    <path class="cls-1" d="M455.8,542.15l-3.57,16.88c-.12.55-.49.8-.86.8-.49,0-.99-.37-.99-1.05,0-13.74-11.95-23.11-27.42-23.11-17.56,0-29.39,13.62-29.39,33.7,0,23.6,16.39,41.96,37.77,41.96,11.4,0,20.76-5.24,24.46-13.49.19-.43.62-.68.99-.68.43,0,.86.31.86.8,0,.06,0,.19-.06.31-3.7,12.32-16.51,21.07-32.59,21.07-23.54,0-41.65-18.85-41.65-43.44s18.12-43.25,43.93-43.25c11.52,0,22.67,3.7,28.53,9.49Z"/>
    <path class="cls-1" d="M508.54,618.19c-.37,0-.62-.43-.62-.92,0-.37.18-.8.62-.86,2.9-.37,4.31-1.97,4.31-5.11,0-2.22-.74-5.18-2.1-9.12l-8.19-21.32h-25.57l-8.19,21.26c-1.11,3.33-1.73,5.98-1.73,8.01,0,3.88,2.09,5.67,6.35,6.28.37.06.55.49.55.86,0,.49-.19.92-.55.92h-18.24c-.37,0-.62-.49-.62-.92s.18-.86.62-.86c3.94,0,6.72-3.63,11.09-14.48l26.68-69.25h2.65l26.68,69.25c4.31,10.84,7.15,14.48,11.09,14.48.37,0,.55.43.55.86s-.19.92-.55.92h-24.83ZM489.81,547.64l-11.89,30.81h23.72l-11.83-30.81Z"/>
    <path class="cls-1" d="M602.02,552.87c0,10.84-9.55,19.41-24.52,22.43l21.93,33.58c2.28,3.51,5.48,5.3,8.93,5.3,1.23,0,2.53-.18,3.76-.68.12-.06.25-.06.31-.06.43,0,.74.43.74.86,0,.25-.06.55-.31.74-3.39,2.77-7.33,4.31-11.28,4.31-5.92,0-10.47-3.33-15.53-11.03l-20.7-31.79c-.37-.55-.55-1.17-.55-1.66s.18-.8.55-.8c15.22,0,24.71-8.01,24.71-20.33,0-11.21-7.95-18.42-19.1-18.42-8.5,0-10.41,4.19-10.41,17.56v45.1c0,13.25,2.4,18.42,8.38,18.42.43,0,.62.43.62.86s-.25.92-.62.92h-26.37c-.37,0-.62-.49-.62-.92s.18-.86.62-.86c5.36,0,7.21-4.62,7.21-17.25v-46.27c0-12.63-1.85-17.19-7.21-17.19-.43,0-.62-.43-.62-.86,0-.49.25-.99.62-.99h15.59c4.93,0,9.61-1.17,15.83-1.17,16.33,0,28.03,8.19,28.03,20.21Z"/>
    <path class="cls-1" d="M632.52,533.84c.37,0,.55.49.55.92s-.19.86-.55.92c-2.9.43-4.31,1.97-4.31,5.11,0,2.09.62,4.87,1.85,8.5l21.26,54.96,20.95-54.34c1.11-3.33,1.66-5.92,1.66-7.95,0-3.88-2.03-5.67-6.29-6.29-.37-.06-.55-.49-.55-.92s.19-.92.55-.92h18.24c.37,0,.62.49.62.99,0,.43-.18.86-.62.86-3.94,0-6.72,3.64-11.09,14.48l-26.68,69.19h-2.65l-26.74-69.19c-4.31-10.84-7.09-14.48-11.03-14.48-.43,0-.62-.43-.62-.86,0-.49.25-.99.62-.99h24.83Z"/>
    <path class="cls-1" d="M718.91,618.19c-.37,0-.62-.43-.62-.92,0-.37.18-.8.62-.86,2.9-.37,4.31-1.97,4.31-5.11,0-2.22-.74-5.18-2.1-9.12l-8.19-21.32h-25.57l-8.19,21.26c-1.11,3.33-1.73,5.98-1.73,8.01,0,3.88,2.09,5.67,6.35,6.28.37.06.55.49.55.86,0,.49-.19.92-.55.92h-18.24c-.37,0-.62-.49-.62-.92s.18-.86.62-.86c3.94,0,6.72-3.63,11.09-14.48l26.68-69.25h2.65l26.68,69.25c4.31,10.84,7.15,14.48,11.09,14.48.37,0,.55.43.55.86s-.19.92-.55.92h-24.83ZM700.18,547.64l-11.89,30.81h23.72l-11.83-30.81Z"/>
    <path class="cls-1" d="M777.51,533.84c.37,0,.55.49.55.99,0,.43-.18.86-.55.86-5.42,0-7.21,4.56-7.21,17.19v46.27c0,12.88,1.54,16.64,7.21,16.64h12.02c10.04,0,16.08-4.56,19.29-16.02.12-.37.43-.49.74-.49.49,0,1.05.31,1.05.8v.06l-2.53,18.05h-55.76c-.37,0-.62-.49-.62-.92s.18-.86.62-.86c5.42,0,7.21-4.62,7.21-17.25v-46.27c0-12.63-1.79-17.19-7.21-17.19-.43,0-.62-.43-.62-.86,0-.49.25-.99.62-.99h25.2Z"/>
    <path class="cls-1" d="M840.67,533.84c.37,0,.62.49.62.99,0,.43-.18.86-.62.86-5.42,0-7.21,4.56-7.21,17.19v21.93h34.81v-21.93c0-12.63-1.79-17.19-7.21-17.19-.37,0-.55-.43-.55-.92,0-.43.19-.92.55-.92h25.2c.37,0,.62.49.62.99,0,.43-.18.86-.62.86-5.42,0-7.21,4.56-7.21,17.19v46.27c0,12.63,1.79,17.25,7.21,17.25.43,0,.62.43.62.86s-.25.92-.62.92h-25.2c-.37,0-.55-.49-.55-.92s.19-.86.55-.86c5.42,0,7.21-4.62,7.21-17.25v-21.93h-34.81v21.93c0,12.63,1.79,17.25,7.21,17.25.43,0,.62.43.62.86s-.25.92-.62.92h-25.2c-.37,0-.55-.49-.55-.92s.18-.86.55-.86c5.42,0,7.21-4.62,7.21-17.25v-46.27c0-12.63-1.79-17.19-7.21-17.19-.37,0-.55-.43-.55-.92,0-.43.18-.92.55-.92h25.2Z"/>
    <path class="cls-1" d="M971.48,576.04c0,24.58-18.24,43.32-42.02,43.32s-41.96-18.85-41.96-43.32,18.36-43.38,41.96-43.38,42.02,18.79,42.02,43.38ZM898.9,570.62c0,25.51,15.96,45.78,34.87,45.78,16.08,0,26.31-14.36,26.31-34.94,0-25.82-15.83-45.78-34.81-45.78-16.08,0-26.37,14.42-26.37,34.94Z"/>
  </g>
  <g>
    <path class="cls-1" d="M411.52,677.31l-2.79-6.83h-14.78l-2.79,6.83h-2.67l11.37-27.78h2.96l11.37,27.78h-2.67ZM401.32,651.86l-6.62,16.45h13.28l-6.66-16.45Z"/>
    <path class="cls-1" d="M433.02,677.31v-3.21c-1.42,2.08-4,3.71-7,3.71-5.33,0-9-4.08-9-10.54s3.66-10.58,9-10.58c2.87,0,5.37,1.46,7,3.75v-10.91h2.21v27.78h-2.21ZM433.02,662.32c-1.17-1.96-3.79-3.66-6.62-3.66-4.46,0-7.04,3.75-7.04,8.62s2.58,8.58,7.04,8.58c2.83,0,5.46-1.67,6.62-3.58v-9.95Z"/>
    <path class="cls-1" d="M447.39,677.31l-8.5-20.12h2.42l7.33,17.57,7.25-17.57h2.46l-8.5,20.12h-2.46Z"/>
    <path class="cls-1" d="M460.84,667.23c0-5.87,3.79-10.54,9.66-10.54s9.7,4.66,9.7,10.54-3.75,10.58-9.7,10.58-9.66-4.71-9.66-10.58ZM477.87,667.23c0-4.46-2.62-8.58-7.37-8.58s-7.33,4.12-7.33,8.58,2.67,8.62,7.33,8.62,7.37-4.12,7.37-8.62Z"/>
    <path class="cls-1" d="M494.41,656.7c3.5,0,5.5,1.37,7.12,3.41l-1.5,1.33c-1.46-2-3.29-2.79-5.5-2.79-4.71,0-7.58,3.75-7.58,8.58s2.87,8.62,7.58,8.62c2.21,0,4.04-.83,5.5-2.83l1.5,1.33c-1.62,2.08-3.62,3.46-7.12,3.46-5.91,0-9.79-4.71-9.79-10.58s3.87-10.54,9.79-10.54Z"/>
    <path class="cls-1" d="M519.15,677.31v-2.37c-1.79,1.96-4.04,2.87-6.83,2.87-3.46,0-7.04-2.37-7.04-6.7s3.54-6.66,7.04-6.66c2.79,0,5.08.92,6.83,2.87v-4.08c0-3-2.42-4.62-5.41-4.62-2.5,0-4.46.88-6.29,2.96l-1.21-1.5c2.08-2.25,4.41-3.37,7.75-3.37,4.08,0,7.33,1.96,7.33,6.45v14.16h-2.17ZM519.15,668.94c-1.42-1.83-3.66-2.79-6.08-2.79-3.33,0-5.5,2.12-5.5,5s2.17,4.96,5.5,4.96c2.42,0,4.66-.92,6.08-2.75v-4.41Z"/>
    <path class="cls-1" d="M536.69,656.7c3.5,0,5.5,1.37,7.12,3.41l-1.5,1.33c-1.46-2-3.29-2.79-5.5-2.79-4.71,0-7.58,3.75-7.58,8.58s2.87,8.62,7.58,8.62c2.21,0,4.04-.83,5.5-2.83l1.5,1.33c-1.62,2.08-3.62,3.46-7.12,3.46-5.91,0-9.79-4.71-9.79-10.58s3.87-10.54,9.79-10.54Z"/>
    <path class="cls-1" d="M548.06,652.11c0-.92.79-1.67,1.67-1.67s1.67.75,1.67,1.67-.75,1.67-1.67,1.67-1.67-.75-1.67-1.67ZM548.64,677.31v-20.12h2.16v20.12h-2.16Z"/>
    <path class="cls-1" d="M570.34,677.31v-2.37c-1.79,1.96-4.04,2.87-6.83,2.87-3.46,0-7.04-2.37-7.04-6.7s3.54-6.66,7.04-6.66c2.79,0,5.08.92,6.83,2.87v-4.08c0-3-2.42-4.62-5.41-4.62-2.5,0-4.46.88-6.29,2.96l-1.21-1.5c2.08-2.25,4.41-3.37,7.75-3.37,4.08,0,7.33,1.96,7.33,6.45v14.16h-2.17ZM570.34,668.94c-1.42-1.83-3.67-2.79-6.08-2.79-3.33,0-5.5,2.12-5.5,5s2.16,4.96,5.5,4.96c2.42,0,4.66-.92,6.08-2.75v-4.41Z"/>
    <path class="cls-1" d="M598.58,656.7c6.12,0,9.49,4.87,9.49,10.66v.58h-16.82c.21,4.37,3.12,8,7.87,8,2.54,0,4.87-.96,6.58-2.79l1.12,1.42c-2,2.08-4.54,3.25-7.87,3.25-5.87,0-10.08-4.37-10.08-10.58,0-5.83,4.12-10.54,9.7-10.54ZM591.25,666.23h14.62c-.04-3.41-2.29-7.66-7.33-7.66-4.75,0-7.12,4.16-7.29,7.66Z"/>
    <path class="cls-1" d="M623.49,663.44c0-8.54,6.2-14.37,13.99-14.37,4.5,0,7.83,1.96,10.2,4.91l-2,1.29c-1.75-2.42-4.79-4.04-8.2-4.04-6.46,0-11.49,4.96-11.49,12.2s5.04,12.2,11.49,12.2c3.41,0,6.45-1.62,8.2-4.04l2,1.25c-2.46,3.04-5.71,4.96-10.2,4.96-7.79,0-13.99-5.83-13.99-14.37Z"/>
    <path class="cls-1" d="M651.27,667.23c0-5.87,3.79-10.54,9.66-10.54s9.7,4.66,9.7,10.54-3.75,10.58-9.7,10.58-9.66-4.71-9.66-10.58ZM668.3,667.23c0-4.46-2.62-8.58-7.37-8.58s-7.33,4.12-7.33,8.58,2.67,8.62,7.33,8.62,7.37-4.12,7.37-8.62Z"/>
    <path class="cls-1" d="M689.8,677.31v-13.62c0-3.87-1.96-5.04-4.87-5.04-2.58,0-5.25,1.62-6.54,3.46v15.2h-2.16v-20.12h2.16v3.04c1.46-1.75,4.33-3.54,7.25-3.54,4.08,0,6.33,2,6.33,6.54v14.08h-2.17Z"/>
    <path class="cls-1" d="M698.25,673.02c1.29,1.62,3.67,2.96,6.5,2.96,3.37,0,5.37-1.67,5.37-4,0-2.58-2.75-3.33-5.62-4.08-3.37-.83-7.08-1.71-7.08-5.62,0-3.08,2.62-5.58,7.16-5.58,3.46,0,5.75,1.33,7.2,2.96l-1.21,1.54c-1.17-1.58-3.33-2.67-6-2.67-3.12,0-5.04,1.54-5.04,3.62,0,2.29,2.58,2.92,5.37,3.62,3.46.87,7.33,1.83,7.33,6.12,0,3.25-2.5,5.91-7.54,5.91-3.25,0-5.75-.96-7.75-3.16l1.29-1.62Z"/>
    <path class="cls-1" d="M731.41,677.31v-2.96c-1.67,1.83-4.33,3.46-7.25,3.46-4.12,0-6.33-1.92-6.33-6.45v-14.16h2.16v13.66c0,3.92,1.96,5,4.87,5,2.58,0,5.21-1.54,6.54-3.33v-15.33h2.17v20.12h-2.17Z"/>
    <path class="cls-1" d="M740.32,677.31v-27.78h2.16v27.78h-2.16Z"/>
    <path class="cls-1" d="M749.65,673.44v-14.33h-3.33v-1.92h3.33v-5.5h2.21v5.5h4.08v1.92h-4.08v13.99c0,1.62.67,2.75,2.08,2.75.96,0,1.79-.46,2.25-.96l.83,1.67c-.79.75-1.75,1.25-3.41,1.25-2.67,0-3.96-1.62-3.96-4.37Z"/>
    <path class="cls-1" d="M759.52,667.23c0-5.87,3.79-10.54,9.66-10.54s9.7,4.66,9.7,10.54-3.75,10.58-9.7,10.58-9.66-4.71-9.66-10.58ZM776.56,667.23c0-4.46-2.62-8.58-7.37-8.58s-7.33,4.12-7.33,8.58,2.67,8.62,7.33,8.62,7.37-4.12,7.37-8.62Z"/>
    <path class="cls-1" d="M784.47,677.31v-20.12h2.16v3.46c1.71-2.25,4-3.87,6.79-3.87v2.37c-.37-.08-.67-.08-1.08-.08-2.04,0-4.79,1.83-5.71,3.58v14.66h-2.16Z"/>
    <path class="cls-1" d="M797.09,652.11c0-.92.79-1.67,1.67-1.67s1.67.75,1.67,1.67-.75,1.67-1.67,1.67-1.67-.75-1.67-1.67ZM797.68,677.31v-20.12h2.16v20.12h-2.16Z"/>
    <path class="cls-1" d="M819.37,677.31v-2.37c-1.79,1.96-4.04,2.87-6.83,2.87-3.46,0-7.04-2.37-7.04-6.7s3.54-6.66,7.04-6.66c2.79,0,5.08.92,6.83,2.87v-4.08c0-3-2.42-4.62-5.41-4.62-2.5,0-4.46.88-6.29,2.96l-1.21-1.5c2.08-2.25,4.41-3.37,7.75-3.37,4.08,0,7.33,1.96,7.33,6.45v14.16h-2.17ZM819.37,668.94c-1.42-1.83-3.67-2.79-6.08-2.79-3.33,0-5.5,2.12-5.5,5s2.16,4.96,5.5,4.96c2.42,0,4.66-.92,6.08-2.75v-4.41Z"/>
    <path class="cls-1" d="M837.74,672.6c1.25,1.62,2.92,3.04,5.54,3.04,3.79,0,6.12-2.62,6.12-6.37v-19.74h2.42v19.74c0,5.79-3.79,8.54-8.41,8.54-3,0-5.29-1.04-7.12-3.41l1.46-1.79Z"/>
    <path class="cls-1" d="M872.23,677.31v-2.96c-1.67,1.83-4.33,3.46-7.25,3.46-4.12,0-6.33-1.92-6.33-6.45v-14.16h2.16v13.66c0,3.92,1.96,5,4.87,5,2.58,0,5.21-1.54,6.54-3.33v-15.33h2.17v20.12h-2.17Z"/>
    <path class="cls-1" d="M881.14,677.31v-20.12h2.16v3.46c1.71-2.25,4-3.87,6.79-3.87v2.37c-.37-.08-.67-.08-1.08-.08-2.04,0-4.79,1.83-5.71,3.58v14.66h-2.16Z"/>
    <path class="cls-1" d="M894.35,677.31v-20.12h2.16v20.12h-2.16ZM896.26,654.15h-1.83l6.41-6h2.58l-7.16,6Z"/>
    <path class="cls-1" d="M918.09,677.31v-3.21c-1.42,2.08-4,3.71-7,3.71-5.33,0-9-4.08-9-10.54s3.67-10.58,9-10.58c2.87,0,5.37,1.46,7,3.75v-10.91h2.21v27.78h-2.21ZM918.09,662.32c-1.17-1.96-3.79-3.66-6.62-3.66-4.46,0-7.04,3.75-7.04,8.62s2.58,8.58,7.04,8.58c2.83,0,5.46-1.67,6.62-3.58v-9.95Z"/>
    <path class="cls-1" d="M926.46,652.11c0-.92.79-1.67,1.67-1.67s1.67.75,1.67,1.67-.75,1.67-1.67,1.67-1.67-.75-1.67-1.67ZM927.04,677.31v-20.12h2.16v20.12h-2.16Z"/>
    <path class="cls-1" d="M944.58,656.7c3.5,0,5.5,1.37,7.12,3.41l-1.5,1.33c-1.46-2-3.29-2.79-5.5-2.79-4.71,0-7.58,3.75-7.58,8.58s2.87,8.62,7.58,8.62c2.21,0,4.04-.83,5.5-2.83l1.5,1.33c-1.62,2.08-3.62,3.46-7.12,3.46-5.91,0-9.79-4.71-9.79-10.58s3.87-10.54,9.79-10.54Z"/>
    <path class="cls-1" d="M969.32,677.31v-2.37c-1.79,1.96-4.04,2.87-6.83,2.87-3.46,0-7.04-2.37-7.04-6.7s3.54-6.66,7.04-6.66c2.79,0,5.08.92,6.83,2.87v-4.08c0-3-2.42-4.62-5.41-4.62-2.5,0-4.46.88-6.29,2.96l-1.21-1.5c2.08-2.25,4.41-3.37,7.75-3.37,4.08,0,7.33,1.96,7.33,6.45v14.16h-2.16ZM969.32,668.94c-1.42-1.83-3.67-2.79-6.08-2.79-3.33,0-5.5,2.12-5.5,5s2.16,4.96,5.5,4.96c2.42,0,4.66-.92,6.08-2.75v-4.41Z"/>
  </g>
</svg>