<?xml version="1.0" encoding="UTF-8"?>
<svg id="Camada_2" data-name="Camada 2" xmlns="http://www.w3.org/2000/svg" viewBox="0 0 1080 1080">
  <defs>
    <style>
      .cls-1 {
        fill: #1a1a1a;
      }
    </style>
  </defs>
  <path class="cls-1" d="M367.75,538.41c0-54.78,15.01-106.17,42.95-149.02v-3.45c0-64.76,9.16-88.14,36.96-88.14,1.9,0,2.84-2.21,2.84-4.42,0-2.53-.95-5.05-2.84-5.05h-129.21c-1.9,0-3.16,2.53-3.16,5.05,0,2.21.95,4.42,3.16,4.42,27.48,0,36.96,23.38,36.96,88.14v211.98c0,117.52-30.01,183.23-83.72,183.23-4.42,0-6.63,2.84-6.63,6s2.53,6.64,7.9,6.64c63.44,0,110.27-45.53,128.88-119.49-22.23-40.33-34.09-86.87-34.09-135.88Z"/>
  <path class="cls-1" d="M804.16,341.54l-20.84,98.43c-.72,3.23-2.87,4.67-5.03,4.67-2.87,0-5.75-2.16-5.75-6.11,0-80.11-69.69-134.72-159.87-134.72-102.38,0-171.36,79.39-171.36,196.51,0,137.59,95.56,244.65,220.22,244.65,66.46,0,121.07-30.54,142.62-78.67,1.08-2.51,3.59-3.95,5.75-3.95,2.52,0,5.03,1.8,5.03,4.67,0,.36,0,1.08-.36,1.8-21.56,71.85-96.28,122.86-190.04,122.86-137.23,0-242.85-109.93-242.85-253.27s105.62-252.19,256.14-252.19c67.18,0,132.2,21.56,166.33,55.32Z"/>
</svg>